<?xml version="1.0"?>
<svg xmlns="http://www.w3.org/2000/svg" xmlns:xlink="http://www.w3.org/1999/xlink" width="150" height="150" viewBox="0 0 378 378" id="barometer" version="1.1">
  <style type="text/css">
		#barometer text {
			font-weight:500;font-size:30px;font-family:Ubuntu;text-anchor:middle;fill:#cccccc
		}
	</style>
  <defs>
    <linearGradient id="i4">
      <stop offset="0"/>
      <stop style="stop-color:#ffffff" offset="1"/>
    </linearGradient>
    <linearGradient xlink:href="#i4" id="i7" x1="196" y1="497" x2="185" y2="-92" gradientUnits="userSpaceOnUse"/>
    <linearGradient xlink:href="#i9" id="i8" x1="303" y1="378" x2="311" y2="391" gradientUnits="userSpaceOnUse" gradientTransform="matrix(13.472,0,0,-4071.965,0,-677.362)"/>
    <linearGradient id="i9">
      <stop style="stop-color:#ffffff" offset="0"/>
      <stop style="stop-color:#ffffff;stop-opacity:0" offset="1"/>
    </linearGradient>
  </defs>
  <circle r="188" cy="188" cx="188" style="fill:url(#i7);"/>
  <circle r="175" style="opacity:0.8;fill-opacity:0.7;stroke:#000000;stroke-width:8;" cx="188" cy="188"/>
  <g>
    <text x="188" y="42">1010</text>
    <text y="-401" x="-68" transform="matrix(-0.866,0.5,-0.5,-0.866,0,0)">1060</text>
    <text y="-214" x="-255" transform="matrix(-0.866,-0.5,0.5,-0.866,0,0)">960</text>
    <text y="111" x="70" transform="matrix(0.866,-0.5,0.5,0.866,0,0)">1000</text>
    <text transform="matrix(0.5,-0.866,0.866,0.5,0,0)" x="-68" y="111">990</text>
    <text y="42" x="-186" transform="matrix(0,-1,1,0,0,0)">980</text>
    <text transform="matrix(-0.5,-0.866,0.866,-0.5,0,0)" x="-255" y="-77">970</text>
    <text transform="matrix(-0.5,0.866,-0.866,-0.5,0,0)" x="70" y="-401">1050</text>
    <text y="-333" x="188" transform="matrix(0,1,-1,0,0,0)">1040</text>
    <text transform="matrix(0.5,0.866,-0.866,0.5,0,0)" x="257" y="-214">1030</text>
    <text y="-77" x="257" transform="matrix(0.866,0.5,-0.5,0.866,0,0)">1020</text>
  </g>
  <path d="M206,14l-1,5m19,-3l-1,5m19,-1l-2,5m19,1l-2,5m-87,-19l1,5m-19,-2l1,5m-19,-1l2,5m-19,1l2,5m-34,13l3,4m203,278l-3,-4m-241,-34l4,-3m278,-203l-4,3m-310,119l5,-1m342,-37l-5,1m-328,-52l5,2m315,139l-5,-2m-272,-198l4,4m231,255l-4,-4m-243,-8l4,-4m255,-231l-4,4m-296,150l5,-1m336,-72l-5,1m-332,-18l5,2m327,105l-5,-2m-291,-168l4,4m256,229l-4,-4m-243,17l4,-4m229,-256l-4,4m-279,181l5,-2m327,-107l-5,2m-332,17l5,1m337,71l-5,-1m-307,-137l4,3m279,201l-4,-3m-240,43l3,-4m201,-279l-3,4m-259,209l5,-2m314,-141l-5,2m-328,52l5,1m342,35l-5,-1m-256,-168l3,5m173,297l-3,-5m-237,-233l5,3m298,171l-5,-3m-234,67l3,-5m171,-298l-3,5m-235,235l5,-3m297,-173l-5,3m-147,-90v5m-174,170h5m344,-1h-5" style="fill:none;stroke:#b3b3b3;stroke-width:3;stroke-linecap:round"/>
  <g>
    <path style="fill:#94a4a6;stroke-opacity:0.5" d="M208,89c10,-5 4,-23 -10,-16c-5,-16 -24,-13 -27,0c-3,12 7,16 7,16Zm-31,5c0,0 -12,-5 -12,-19c0,-18 26,-25 35,-8c18,-3 23,20 9,27Z"/>
    <g transform="matrix(0.208,0,0,0.208,80.907,204.763)">
      <path style="fill:#94a4a6" d="M168,45c-43,-79 -166,-47 -167,38c-2,68 55,90 55,90l6,-23c0,0 -48,-19 -35,-79c12,-58 105,-72 128,2c66,-34 94,54 47,76l-29,31c126,-15 80,-151 -5,-135Z"/>
      <path style="fill:#f0c40f" d="M108,99h56l-34,54h40l-65,78l11,-55h-37Z"/>
    </g>
    <g transform="matrix(0.207,0,0,0.207,83.575,104.588)">
      <path style="fill:#94a4a6" d="M169,46c-43,-80 -167,-48 -169,39c-2,69 56,91 56,91l6,-24c0,0 -48,-19 -35,-79c12,-58 106,-73 130,2c66,-34 95,55 48,77l7,24c68,-32 45,-146 -41,-130Z"/>
      <path style="fill:#3497db" d="M163,147c0,0 35,43 2,43c-31,-1 -2,-43 -2,-43Z"/>
      <path style="fill:#3497db" d="M98,150c0,0 35,43 2,43c-31,-1 -2,-43 -2,-43Z"/>
      <path style="fill:#3497db" d="M134,196c0,0 35,43 2,43c-31,-1 -2,-43 -2,-43Z"/>
    </g>
    <g transform="matrix(0.248,0,0,0.248,238.099,100.544)">
      <path style="fill:#f0c40f" d="M130,8c1,-11 22,-9 23,0v25c0,10 -23,10 -23,0Zm87,112c-11,-1 -9,-22 0,-23h25c10,0 10,23 0,23Zm-14,-57c-9,8 -23,-9 -16,-16l18,-18c7,-7 23,10 16,16Zm-123,0c9,8 23,-9 16,-16l-18,-18c-7,-7 -23,10 -16,16Zm117,86c2,10 2,20 -1,29l8,9c9,8 23,-9 16,-16l-18,-18c-1,-1 -5,-4 -6,-5Zm-81,-63c6,-7 14,-12 25,-12c23,0 34,21 33,40l19,18c14,-32 -3,-78 -51,-78c-21,0 -36,9 -45,21Z"/>
      <path style="fill:#94a4a6" d="M45,213c0,0 -46,-18 -45,-73c2,-70 102,-96 137,-31c69,-13 88,79 33,105Zm119,-19c38,-18 15,-89 -38,-62c-19,-61 -95,-49 -105,-2c-10,49 29,64 29,64Z"/>
    </g>
    <path style="fill:#f0c40f" d="M252,216c2,2 6,-2 4,-4l-4,-4c-2,-2 -6,2 -4,4Zm32,32c2,2 6,-2 4,-4l-4,-4c-2,-2 -6,2 -4,4Zm0,-32c-2,2 -6,-2 -4,-4l4,-4c2,-2 6,2 4,4Zm-32,32c-2,2 -6,-2 -4,-4l4,-4c2,-2 6,2 4,4Zm35,-17c-3,0 -2,-6 0,-6h6c3,0 2,6 0,6Zm-45,0c-3,0 -2,-6 0,-6h6c3,0 2,6 0,6Zm23,16c0,-3 6,-2 6,0v6c0,3 -6,2 -6,0Zm0,-45c0,-3 6,-2 6,0v6c0,3 -6,2 -6,0Zm3,17c-11,0 -11,18 0,18c11,0 11,-18 0,-18Zm0,-5c19,0 19,28 0,28c-19,0 -19,-28 0,-28Z"/>
  </g>
  <text id="baro_digit" x="187" y="300"></text>
  <path d="M188,185c-4,0 -5,6 0,6c4,0 4,-6 0,-6Zm1,-157l2,150c11,5 10,17 0,21v27l-4,3l-4,-3v-27c-9,-4 -10,-16 0,-21l2,-150c1,-3 2,-2 2,0Z" style="fill:#ff9900" id="baro_dial"/>
  <path d="M189,19c-92,0 -167,77 -167,171c0,45 18,86 46,117c15,-124 117,-220 241,-220c3,0 6,1 10,1c-31,-41 -77,-68 -130,-68Z" style="opacity:0.1;fill:url(#i8)"/>
</svg>
